#N canvas 677 0 681 676 12;
#X text 37 92 What if we are finished working on the project and want
to play the sound from the oscillator? As you know from Lesson 2 \,
data coming to an object's inlet overwrites its argument. Which is
precisely what we want to do - replace the 0 with \, let's say 1 So
we can modify our patch like this:;
#X text 38 34 Chapter 4;
#X msg 44 193 440;
#X obj 44 241 osc~;
#X obj 43 287 *~ 0;
#X obj 44 337 dac~;
#X msg 108 240 1;
#X text 36 381 After clicking on the Message with 1 \, the volume should
be back up. But what if we want to play different tones with different
volumes? Let's say the other tone has a frequency of 880 and should
be played with only half the volume. First we need to add objects:
;
#X msg 38 488 440;
#X obj 38 536 osc~;
#X obj 37 582 *~ 0;
#X obj 38 632 dac~;
#X msg 102 535 1;
#X msg 102 490 880;
#X msg 155 536 0.5;
#X msg 278 536 0;
#X text 312 537 <- Click here to make the patch silent again;
#X obj 37 685 bng 15 250 50 0 empty empty empty 17 7 0 10 -262144 -1
-1;
#X text 64 684 Next page;
#X msg 37 706 \; pd open Chapter_4.3.pd C:/Users/Peťo/Desktop/Thesis/Learning_Platform/Pd/Chapters
, f 82;
#X obj 31 705 cnv 15 610 40 empty empty empty 20 12 0 14 -262144 -66577
0;
#X connect 2 0 3 0;
#X connect 3 0 4 0;
#X connect 4 0 5 0;
#X connect 4 0 5 1;
#X connect 6 0 4 1;
#X connect 8 0 9 0;
#X connect 9 0 10 0;
#X connect 10 0 11 0;
#X connect 10 0 11 1;
#X connect 12 0 10 1;
#X connect 13 0 9 0;
#X connect 14 0 10 1;
#X connect 15 0 10 1;
#X connect 17 0 19 0;
