#N canvas 676 0 681 676 12;
#X text 55 21 Chapter 6;
#X msg 56 241 0 \, 540 1000;
#X obj 56 289 line;
#X floatatom 56 340 5 0 0 0 - - -;
#X text 49 381 The above patch contains a Line object which receives
a message as an input. This message specifies the following: after
activating the message (e.g. by clicking on it) the line object will
output numbers from 0 to 540 and the duration of this will be 1000
milliseconds. Because 0 is the default number where the Line will start
counting \, we can rewrite the above patch like this:;
#X obj 55 561 line;
#X floatatom 55 612 5 0 0 0 - - -;
#X msg 55 513 540 1000;
#X obj 59 671 bng 15 250 50 0 empty empty empty 17 7 0 10 -262144 -1
-1;
#X text 96 668 Next Page;
#X msg 59 693 \; pd open Chapter_6.2.pd C:/Users/Peťo/Desktop/Thesis/Learning_Platform/Pd/Chapters
, f 81;
#X obj 52 693 cnv 15 610 40 empty empty empty 20 12 0 14 -262144 -66577
0;
#X text 52 59 There is a rather large number of objects in Pure Data.
Some are used to a greater degree than others. In this lesson we will
go over some of the most commonly used ones.;
#X text 51 159 In principle \, a line is an object that counts from
one number to another. This counting can take a certain amount of time
which can be specified with an argument. Let's look at an example:
;
#X text 54 128 Line;
#X connect 1 0 2 0;
#X connect 2 0 3 0;
#X connect 5 0 6 0;
#X connect 7 0 5 0;
#X connect 8 0 10 0;
