#N canvas 682 0 675 676 12;
#X text 57 31 Chapter 5;
#X text 62 77 Let's modify our example from Lesson 3 where we had 2
Numbers that we added up and sent to the oscillator by replacing the
Numbers with Messages \, and let's make it quiet by default:;
#X msg 69 163 220;
#X msg 144 163 220;
#X obj 103 217 +;
#X obj 103 272 osc~;
#X obj 103 332 *~ 0;
#X obj 104 391 dac~;
#X text 65 441 This patch doesn't do much yet. Let's use the knowledge
from Lesson 4 and add an option to to turn it on to volume 1;
#X obj 70 499 bng 15 250 50 0 empty empty empty 17 7 0 10 -262144 -1
-1;
#X text 105 495 Show solution;
#X msg 70 520 \; pd open Solution_5.1.pd C:/Users/Peťo/Desktop/Thesis/Learning_Platform/Pd/Solutions
, f 83;
#X obj 229 497 bng 15 250 50 0 empty empty empty 17 7 0 10 -262144
-1 -1;
#X text 255 496 Next page;
#X msg 229 520 \; pd open Chapter_5.2.pd C:/Users/Peťo/Desktop/Thesis/Learning_Platform/Pd/Chapters
, f 82;
#X obj 67 518 cnv 15 610 40 empty empty empty 20 12 0 14 -262144 -66577
0;
#X obj 224 516 cnv 15 610 40 empty empty empty 20 12 0 14 -262144 -66577
0;
#X connect 2 0 4 0;
#X connect 3 0 4 1;
#X connect 4 0 5 0;
#X connect 5 0 6 0;
#X connect 6 0 7 0;
#X connect 6 0 7 1;
#X connect 9 0 11 0;
#X connect 12 0 14 0;
