#N canvas 2 62 681 494 12;
#X obj 64 33 bng 15 250 50 0 empty empty empty 17 7 0 10 -262144 -1
-1;
#X obj 64 77 trigger bang bang bang;
#X msg 64 131 220;
#X msg 139 131 220;
#X obj 101 192 +;
#X obj 101 248 osc~;
#X obj 100 305 *~ 0;
#X obj 99 367 dac~;
#X obj 215 247 tgl 15 0 empty empty empty 17 7 0 10 -262144 -1 -1 0
1;
#X text 259 73 Explanation: The Bang activates the Trigger. Then the
Trigger first activates the Toggle \, then the right 220 \, and finally
the left 220;
#X msg 215 131 1;
#X connect 0 0 1 0;
#X connect 1 0 2 0;
#X connect 1 1 3 0;
#X connect 1 2 10 0;
#X connect 2 0 4 0;
#X connect 3 0 4 1;
#X connect 4 0 5 0;
#X connect 5 0 6 0;
#X connect 6 0 7 0;
#X connect 6 0 7 1;
#X connect 8 0 6 1;
#X connect 10 0 8 0;
